# xmcd CD database file
#
# Track frame offsets:
#	150
#	13331
#	27243
#	39481
#	53121
#	68138
#	83168
#	97858
#	109972
#	122974
#	136405
#	150132
#	162423
#	176636
#	190628
#	205413
#	219804
#	233163
#	245967
#	259556
#	271517
#
# Disc length: 3811 seconds
#
# Revision: 0
# Processed by: cddbd v1.5.1PL2 Copyright (c) Steve Scherf et al.
# Submitted via: NeoAudio 9.9.9
#
DISCID=1a0ee115
DTITLE=Various Artist - Dine With Us - Disc 2
DYEAR=1999
DGENRE=Jazz
TTITLE0=Delores - Frank Sinatra
TTITLE1=The Boy Next Door - Judy Garland
TTITLE2=My Last Affair - Ella Fitzgerald
TTITLE3=White Christmas - Bing Crosby
TTITLE4=Cheek to Cheek - Fred Astaire
TTITLE5=Don't Be That Way - Benny Goodman
TTITLE6=I'm Beginning to See the Light - Duke Ellington
TTITLE7=Honeysuckle Rose - Fats Waller
TTITLE8=Beat Me Daddy - Eight to the Bar - Andrews Sisters
TTITLE9=Song of India - Tommey Dorsey
TTITLE10=Ain't Misbehavin' - Fats Waller
TTITLE11=When the Saints Go Marching In - Louis Armstrong
TTITLE12=Song of India - Tommey Dorsey
TTITLE13=On the Atchison, Topeka, and the Santa Fe - Judy Garland
TTITLE14=(I've Got a Gal in) Kalamazoo - Glenn Miller
TTITLE15=Why Don't You Do Right - Benny Goodman
TTITLE16=All or Nothing At All - Frank Sinatra
TTITLE17=Dinah - Bing Crosby with the Mills Brother
TTITLE18=Jumpin' at the Woodside - Count Basie
TTITLE19=Top Hat, White Tie, and Tails - Fred Astaire
TTITLE20=Gloomy Sunday - Billie Holiday
EXTD=YEAR: 1999
EXTT0=
EXTT1=
EXTT2=
EXTT3=
EXTT4=
EXTT5=
EXTT6=
EXTT7=
EXTT8=
EXTT9=
EXTT10=
EXTT11=
EXTT12=
EXTT13=
EXTT14=
EXTT15=
EXTT16=
EXTT17=
EXTT18=
EXTT19=
EXTT20=
PLAYORDER=
